<svg xmlns="http://www.w3.org/2000/svg" width="120" height="50" viewBox="0 0 120 50">
  <rect width="120" height="50" fill="white"></rect>
  <g fill="black">
    <rect x="5" width="2" height="40"></rect>
    <rect x="10" width="1" height="40"></rect>
    <rect x="13" width="3" height="40"></rect>
    <rect x="18" width="1" height="40"></rect>
    <rect x="21" width="2" height="40"></rect>
    <rect x="25" width="1" height="40"></rect>
    <rect x="28" width="2" height="40"></rect>
    <rect x="32" width="3" height="40"></rect>
    <rect x="37" width="1" height="40"></rect>
    <rect x="40" width="2" height="40"></rect>
    <rect x="44" width="1" height="40"></rect>
    <rect x="47" width="3" height="40"></rect>
    <rect x="52" width="2" height="40"></rect>
    <rect x="56" width="1" height="40"></rect>
    <rect x="59" width="2" height="40"></rect>
    <rect x="63" width="1" height="40"></rect>
    <rect x="66" width="3" height="40"></rect>
    <rect x="71" width="1" height="40"></rect>
    <rect x="74" width="2" height="40"></rect>
    <rect x="78" width="1" height="40"></rect>
    <rect x="81" width="2" height="40"></rect>
    <rect x="85" width="1" height="40"></rect>
    <rect x="88" width="3" height="40"></rect>
    <rect x="93" width="1" height="40"></rect>
    <rect x="96" width="2" height="40"></rect>
    <rect x="100" width="1" height="40"></rect>
  </g>
</svg>
